<svg width="32" height="32" viewBox="0 0 32 32" fill="none" xmlns="http://www.w3.org/2000/svg">
  <defs>
    <linearGradient id="infiniteGradient" x1="0%" y1="0%" x2="100%" y2="100%">
      <stop offset="0%" style="stop-color:#7A1F2B;stop-opacity:1" />
      <stop offset="50%" style="stop-color:#C9A227;stop-opacity:1" />
      <stop offset="100%" style="stop-color:#7A1F2B;stop-opacity:1" />
    </linearGradient>
  </defs>
  
  <!-- Background circle -->
  <circle cx="16" cy="16" r="15" fill="url(#infiniteGradient)" stroke="#fff" stroke-width="1"/>
  
  <!-- Infinity symbol -->
  <path d="M8 16C8 12.6863 10.6863 10 14 10C15.3807 10 16.6307 10.4472 17.618 11.2361L20 13.2361C20.618 13.7361 21.382 13.7361 22 13.2361L24.382 11.2361C25.3693 10.4472 26.6193 10 28 10C31.3137 10 34 12.6863 34 16C34 19.3137 31.3137 22 28 22C26.6193 22 25.3693 21.5528 24.382 20.7639L22 18.7639C21.382 18.2639 20.618 18.2639 20 18.7639L17.618 20.7639C16.6307 21.5528 15.3807 22 14 22C10.6863 22 8 19.3137 8 16Z" 
        fill="none" 
        stroke="#fff" 
        stroke-width="2.5" 
        stroke-linecap="round" 
        stroke-linejoin="round"
        transform="translate(-6, -6) scale(0.7)"/>
  
  <!-- Decorative dots -->
  <circle cx="12" cy="12" r="1.5" fill="#fff" opacity="0.8"/>
  <circle cx="20" cy="20" r="1.5" fill="#fff" opacity="0.8"/>
  <circle cx="12" cy="20" r="1" fill="#fff" opacity="0.6"/>
  <circle cx="20" cy="12" r="1" fill="#fff" opacity="0.6"/>
</svg>




